<?xml version="1.0" standalone="no"?>
<!DOCTYPE svg PUBLIC "-//W3C//DTD SVG 20010904//EN" "http://www.w3.org/TR/2001/REC-SVG-20010904/DTD/svg10.dtd">
<svg xmlns="http://www.w3.org/2000/svg" version="1.0" width="856.000000pt" height="1000.000000pt" viewBox="0 0 856.000000 1000.000000" preserveAspectRatio="xMidYMid meet">
<metadata>
Created by potrace 1.16, written by Peter Selinger 2001-2019
<meta name="Producer" content="Online-Convert"/></metadata>
<g transform="translate(0.000000,1000.000000) scale(0.100000,-0.100000)" fill="#000000" stroke="none">
<path d="M1420 9732 c0 -11 -115 -1905 -256 -4209 -228 -3739 -277 -4583 -266 -4583 7 0 238 124 372 198 1084 606 1747 1353 1965 2217 145 575 107 1203 -115 1890 -56 172 -127 365 -139 378 -4 4 -295 -222 -647 -503 -351 -280 -643 -508 -649 -507 -13 5 -96 199 -91 213 3 7 246 348 540 759 295 410 536 752 536 758 0 6 -64 160 -141 342 -196 457 -259 661 -259 835 0 47 23 166 34 178 13 12 112 -53 172 -112 134 -135 204 -261 420 -761 l143 -330 922 -127 c507 -70 925 -130 929 -135 13 -15 91 -206 86 -210 -3 -3 -370 -56 -816 -118 -446 -62 -813 -115 -815 -117 -7 -6 177 -341 264 -481 391 -630 884 -1087 1449 -1342 730 -329 1613 -349 2620 -59 147 43 474 149 499 163 8 4 -1287 1097 -3364 2841 -1857 1559 -3380 2837 -3385 2838 -4 2 -8 -5 -8 -16z"/>
</g>
</svg>
